<mxfile host="app.diagrams.net" agent="Mozilla/5.0 (Windows NT 10.0; Win64; x64) AppleWebKit/537.36 (KHTML, like Gecko) Chrome/128.0.0.0 Safari/537.36" version="24.7.10">
  <diagram name="Página-1" id="PRkVx8Xt6sNE5x5Xhlfs">
    <mxGraphModel dx="880" dy="426" grid="0" gridSize="10" guides="1" tooltips="1" connect="1" arrows="1" fold="1" page="1" pageScale="1" pageWidth="827" pageHeight="1169" math="0" shadow="0">
      <root>
        <mxCell id="0" />
        <mxCell id="1" parent="0" />
        <mxCell id="JDO_yWy1eNfX5Oow8hrL-10" value="Integração sistema Nutrologo (DESEJÁVEL - MELHORIA)" style="rounded=1;arcSize=10;whiteSpace=wrap;html=1;align=center;" vertex="1" parent="1">
          <mxGeometry x="440" y="140" width="120" height="60" as="geometry" />
        </mxCell>
        <mxCell id="JDO_yWy1eNfX5Oow8hrL-11" value="Cadastrar Refeição USC02" style="rounded=1;arcSize=10;whiteSpace=wrap;html=1;align=center;" vertex="1" parent="1">
          <mxGeometry x="170" y="430" width="100" height="40" as="geometry" />
        </mxCell>
        <mxCell id="JDO_yWy1eNfX5Oow8hrL-12" value="Consultar Receita USC10" style="rounded=1;arcSize=10;whiteSpace=wrap;html=1;align=center;" vertex="1" parent="1">
          <mxGeometry x="390" y="430" width="100" height="40" as="geometry" />
        </mxCell>
        <mxCell id="JDO_yWy1eNfX5Oow8hrL-13" value="Emitir Relatórios USC12" style="rounded=1;arcSize=10;whiteSpace=wrap;html=1;align=center;" vertex="1" parent="1">
          <mxGeometry x="500" y="430" width="150" height="40" as="geometry" />
        </mxCell>
        <mxCell id="JDO_yWy1eNfX5Oow8hrL-14" value="Integração LIBRE (DESEJÁVEL - MELHORIA)" style="rounded=1;arcSize=10;whiteSpace=wrap;html=1;align=center;" vertex="1" parent="1">
          <mxGeometry x="200" y="140" width="120" height="60" as="geometry" />
        </mxCell>
        <mxCell id="JDO_yWy1eNfX5Oow8hrL-15" value="Cadastrar Alimento USC06" style="rounded=1;arcSize=10;whiteSpace=wrap;html=1;align=center;" vertex="1" parent="1">
          <mxGeometry x="280" y="430" width="100" height="40" as="geometry" />
        </mxCell>
        <mxCell id="JDO_yWy1eNfX5Oow8hrL-16" value="Autenticar acesso Sistema&lt;div&gt;USC01&lt;/div&gt;" style="rounded=1;arcSize=10;whiteSpace=wrap;html=1;align=center;" vertex="1" parent="1">
          <mxGeometry x="330" y="330" width="100" height="50" as="geometry" />
        </mxCell>
        <mxCell id="JDO_yWy1eNfX5Oow8hrL-32" value="" style="edgeStyle=orthogonalEdgeStyle;rounded=0;orthogonalLoop=1;jettySize=auto;html=1;" edge="1" parent="1" source="JDO_yWy1eNfX5Oow8hrL-17" target="JDO_yWy1eNfX5Oow8hrL-16">
          <mxGeometry relative="1" as="geometry" />
        </mxCell>
        <mxCell id="JDO_yWy1eNfX5Oow8hrL-17" value="Aplicativo DIAVITTAL" style="rounded=1;arcSize=10;whiteSpace=wrap;html=1;align=center;" vertex="1" parent="1">
          <mxGeometry x="320" y="240" width="120" height="60" as="geometry" />
        </mxCell>
        <mxCell id="JDO_yWy1eNfX5Oow8hrL-28" value="" style="endArrow=block;startArrow=block;endFill=1;startFill=1;html=1;rounded=0;entryX=0;entryY=0.5;entryDx=0;entryDy=0;" edge="1" parent="1" target="JDO_yWy1eNfX5Oow8hrL-17">
          <mxGeometry width="160" relative="1" as="geometry">
            <mxPoint x="260" y="200" as="sourcePoint" />
            <mxPoint x="420" y="200" as="targetPoint" />
          </mxGeometry>
        </mxCell>
        <mxCell id="JDO_yWy1eNfX5Oow8hrL-29" value="" style="endArrow=block;startArrow=block;endFill=1;startFill=1;html=1;rounded=0;" edge="1" parent="1">
          <mxGeometry width="160" relative="1" as="geometry">
            <mxPoint x="440" y="270" as="sourcePoint" />
            <mxPoint x="510" y="200" as="targetPoint" />
          </mxGeometry>
        </mxCell>
        <mxCell id="JDO_yWy1eNfX5Oow8hrL-30" style="edgeStyle=orthogonalEdgeStyle;rounded=0;orthogonalLoop=1;jettySize=auto;html=1;exitX=1;exitY=0.5;exitDx=0;exitDy=0;entryX=1;entryY=0.75;entryDx=0;entryDy=0;" edge="1" parent="1" source="JDO_yWy1eNfX5Oow8hrL-16" target="JDO_yWy1eNfX5Oow8hrL-16">
          <mxGeometry relative="1" as="geometry">
            <Array as="points">
              <mxPoint x="430" y="360" />
            </Array>
          </mxGeometry>
        </mxCell>
        <mxCell id="JDO_yWy1eNfX5Oow8hrL-34" value="" style="strokeWidth=2;html=1;shape=mxgraph.flowchart.annotation_2;align=left;labelPosition=right;pointerEvents=1;rotation=90;" vertex="1" parent="1">
          <mxGeometry x="355" y="356" width="50" height="100" as="geometry" />
        </mxCell>
        <mxCell id="JDO_yWy1eNfX5Oow8hrL-35" value="" style="strokeWidth=2;html=1;shape=mxgraph.flowchart.annotation_1;align=left;pointerEvents=1;direction=south;" vertex="1" parent="1">
          <mxGeometry x="229" y="406" width="100" height="24" as="geometry" />
        </mxCell>
        <mxCell id="JDO_yWy1eNfX5Oow8hrL-36" value="" style="strokeWidth=2;html=1;shape=mxgraph.flowchart.annotation_1;align=left;pointerEvents=1;direction=south;" vertex="1" parent="1">
          <mxGeometry x="431" y="406" width="139" height="24" as="geometry" />
        </mxCell>
        <mxCell id="JDO_yWy1eNfX5Oow8hrL-39" value="Editar USC03&lt;div&gt;Alterar&amp;nbsp;&lt;span style=&quot;background-color: initial;&quot;&gt;USC04&lt;/span&gt;&lt;/div&gt;&lt;div&gt;Excluir&amp;nbsp;&lt;span style=&quot;background-color: initial;&quot;&gt;USC05&lt;/span&gt;&lt;/div&gt;" style="rounded=1;whiteSpace=wrap;html=1;" vertex="1" parent="1">
          <mxGeometry x="170" y="470" width="100" height="60" as="geometry" />
        </mxCell>
        <mxCell id="JDO_yWy1eNfX5Oow8hrL-40" value="Editar USC07&lt;div&gt;&lt;div&gt;Alterar&amp;nbsp;&lt;span style=&quot;background-color: initial;&quot;&gt;USC08&lt;/span&gt;&lt;/div&gt;&lt;div&gt;Excluir&amp;nbsp;&lt;span style=&quot;background-color: initial;&quot;&gt;USC09&lt;/span&gt;&lt;/div&gt;&lt;/div&gt;" style="rounded=1;whiteSpace=wrap;html=1;" vertex="1" parent="1">
          <mxGeometry x="280" y="470" width="100" height="60" as="geometry" />
        </mxCell>
        <mxCell id="JDO_yWy1eNfX5Oow8hrL-41" value="Transferir USC11&lt;div&gt;&lt;div&gt;Favoritar&amp;nbsp;&lt;span style=&quot;background-color: initial;&quot;&gt;USC12&lt;/span&gt;&lt;/div&gt;&lt;/div&gt;" style="rounded=1;whiteSpace=wrap;html=1;" vertex="1" parent="1">
          <mxGeometry x="390" y="470" width="100" height="60" as="geometry" />
        </mxCell>
        <mxCell id="JDO_yWy1eNfX5Oow8hrL-42" value="Relatorio Alimento USC13&lt;div&gt;&lt;div&gt;Relatorio Refeição&amp;nbsp;&lt;span style=&quot;background-color: initial;&quot;&gt;USC14&lt;/span&gt;&lt;/div&gt;&lt;div&gt;Relatório Receitas&amp;nbsp;&lt;span style=&quot;background-color: initial;&quot;&gt;USC15&lt;/span&gt;&lt;/div&gt;&lt;/div&gt;" style="rounded=1;whiteSpace=wrap;html=1;" vertex="1" parent="1">
          <mxGeometry x="500" y="470" width="150" height="60" as="geometry" />
        </mxCell>
      </root>
    </mxGraphModel>
  </diagram>
</mxfile>
